<mxfile host="app.diagrams.net" modified="2023-08-21T16:37:26.522Z" agent="Mozilla/5.0 (Windows NT 10.0; Win64; x64) AppleWebKit/537.36 (KHTML, like Gecko) Chrome/115.0.0.0 Safari/537.36" version="21.6.5" etag="k4D8FNZKJaMb_pTAKocU" type="github">
  <diagram name="Page-1" id="RJ-lGo_aXheRYwAJJzoa">
    <mxGraphModel>
      <root>
        <mxCell id="0" />
        <mxCell id="1" parent="0" />
      </root>
    </mxGraphModel>
  </diagram>
</mxfile>
